<svg id="_0470_artificial_intelligence_2" xmlns="http://www.w3.org/2000/svg" xmlns:xlink="http://www.w3.org/1999/xlink" viewBox="0 0 500 500" data-imageid="artificial-intelligence-2-77" imageName="Artificial Intelligence 2" class="illustrations_image" style="width: 188px;"><defs><style>.cls-1_artificial-intelligence-2-77{fill:url(#linear-gradient);}.cls-1_artificial-intelligence-2-77,.cls-2_artificial-intelligence-2-77,.cls-3_artificial-intelligence-2-77,.cls-4_artificial-intelligence-2-77,.cls-5_artificial-intelligence-2-77,.cls-6_artificial-intelligence-2-77,.cls-7_artificial-intelligence-2-77,.cls-8_artificial-intelligence-2-77,.cls-9_artificial-intelligence-2-77,.cls-10_artificial-intelligence-2-77,.cls-11_artificial-intelligence-2-77,.cls-12_artificial-intelligence-2-77,.cls-13_artificial-intelligence-2-77,.cls-14_artificial-intelligence-2-77,.cls-15_artificial-intelligence-2-77,.cls-16_artificial-intelligence-2-77,.cls-17_artificial-intelligence-2-77,.cls-18_artificial-intelligence-2-77,.cls-19_artificial-intelligence-2-77,.cls-20_artificial-intelligence-2-77,.cls-21_artificial-intelligence-2-77,.cls-22_artificial-intelligence-2-77,.cls-23_artificial-intelligence-2-77,.cls-24_artificial-intelligence-2-77{stroke-width:0px;}.cls-2_artificial-intelligence-2-77{opacity:.18;}.cls-2_artificial-intelligence-2-77,.cls-12_artificial-intelligence-2-77,.cls-13_artificial-intelligence-2-77,.cls-14_artificial-intelligence-2-77{isolation:isolate;}.cls-2_artificial-intelligence-2-77,.cls-14_artificial-intelligence-2-77,.cls-24_artificial-intelligence-2-77{fill:#68e1fd;}.cls-3_artificial-intelligence-2-77{fill:url(#linear-gradient-11-artificial-intelligence-2-77);}.cls-4_artificial-intelligence-2-77{fill:url(#linear-gradient-12-artificial-intelligence-2-77);}.cls-5_artificial-intelligence-2-77{fill:url(#linear-gradient-13-artificial-intelligence-2-77);}.cls-6_artificial-intelligence-2-77{fill:url(#linear-gradient-10-artificial-intelligence-2-77);}.cls-7_artificial-intelligence-2-77{fill:url(#linear-gradient-17-artificial-intelligence-2-77);}.cls-8_artificial-intelligence-2-77{fill:url(#linear-gradient-16-artificial-intelligence-2-77);}.cls-9_artificial-intelligence-2-77{fill:url(#linear-gradient-15-artificial-intelligence-2-77);}.cls-10_artificial-intelligence-2-77{fill:url(#linear-gradient-18-artificial-intelligence-2-77);}.cls-11_artificial-intelligence-2-77{fill:url(#linear-gradient-14-artificial-intelligence-2-77);}.cls-12_artificial-intelligence-2-77{opacity:.55;}.cls-12_artificial-intelligence-2-77,.cls-23_artificial-intelligence-2-77{fill:#fff;}.cls-13_artificial-intelligence-2-77{fill:#282328;opacity:.16;}.cls-14_artificial-intelligence-2-77,.cls-25_artificial-intelligence-2-77{opacity:.82;}.cls-15_artificial-intelligence-2-77{fill:url(#linear-gradient-4-artificial-intelligence-2-77);}.cls-16_artificial-intelligence-2-77{fill:url(#linear-gradient-2-artificial-intelligence-2-77);}.cls-17_artificial-intelligence-2-77{fill:url(#linear-gradient-3-artificial-intelligence-2-77);}.cls-18_artificial-intelligence-2-77{fill:url(#linear-gradient-8-artificial-intelligence-2-77);}.cls-19_artificial-intelligence-2-77{fill:url(#linear-gradient-9-artificial-intelligence-2-77);}.cls-20_artificial-intelligence-2-77{fill:url(#linear-gradient-7-artificial-intelligence-2-77);}.cls-21_artificial-intelligence-2-77{fill:url(#linear-gradient-5-artificial-intelligence-2-77);}.cls-22_artificial-intelligence-2-77{fill:url(#linear-gradient-6-artificial-intelligence-2-77);}</style><linearGradient id="linear-gradient-artificial-intelligence-2-77" x1="164.33" y1="1989.51" x2="194.96" y2="1874.05" gradientTransform="translate(-43.92 2318.36) scale(1 -1)" gradientUnits="userSpaceOnUse"><stop offset="0" stop-color="#231f20"/><stop offset=".13" stop-color="#231f20" stop-opacity=".69"/><stop offset="1" stop-color="#231f20" stop-opacity="0"/></linearGradient><linearGradient id="linear-gradient-2-artificial-intelligence-2-77" x1="191.77" y1="2093.5" x2="224.76" y2="2101.04" xlink:href="#linear-gradient-artificial-intelligence-2-77"/><linearGradient id="linear-gradient-3-artificial-intelligence-2-77" x1="145.43" y1="184.25" x2="119.38" y2="189.78" gradientUnits="userSpaceOnUse"><stop offset="0" stop-color="#000"/><stop offset=".08" stop-color="#000" stop-opacity=".69"/><stop offset=".21" stop-color="#000" stop-opacity=".32"/><stop offset=".59" stop-color="#000" stop-opacity=".13"/><stop offset="1" stop-color="#000" stop-opacity="0"/></linearGradient><linearGradient id="linear-gradient-4-artificial-intelligence-2-77" x1="143.07" y1="2082.22" x2="210.05" y2="2093.07" xlink:href="#linear-gradient-artificial-intelligence-2-77"/><linearGradient id="linear-gradient-5-artificial-intelligence-2-77" x1="136.19" y1="2102.95" x2="180.49" y2="2068.55" xlink:href="#linear-gradient-artificial-intelligence-2-77"/><linearGradient id="linear-gradient-6-artificial-intelligence-2-77" x1="143.61" y1="2101.78" x2="199.96" y2="2131.64" xlink:href="#linear-gradient-artificial-intelligence-2-77"/><linearGradient id="linear-gradient-7-artificial-intelligence-2-77" x1="231.65" y1="2073.02" x2="216.81" y2="2118.5" xlink:href="#linear-gradient-artificial-intelligence-2-77"/><linearGradient id="linear-gradient-8-artificial-intelligence-2-77" x1="152.57" y1="2038.53" x2="209.39" y2="2026.05" xlink:href="#linear-gradient-artificial-intelligence-2-77"/><linearGradient id="linear-gradient-9-artificial-intelligence-2-77" x1="134.21" y1="1990.72" x2="191.12" y2="1971.1" xlink:href="#linear-gradient-artificial-intelligence-2-77"/><linearGradient id="linear-gradient-10-artificial-intelligence-2-77" x1="166.54" y1="1995.29" x2="223.45" y2="1975.67" xlink:href="#linear-gradient-artificial-intelligence-2-77"/><linearGradient id="linear-gradient-11-artificial-intelligence-2-77" x1="164.48" y1="2036.76" x2="244.72" y2="2029.52" xlink:href="#linear-gradient-artificial-intelligence-2-77"/><linearGradient id="linear-gradient-12-artificial-intelligence-2-77" x1="166.54" y1="1995.29" x2="223.45" y2="1975.67" xlink:href="#linear-gradient-artificial-intelligence-2-77"/><linearGradient id="linear-gradient-13-artificial-intelligence-2-77" x1="145.11" y1="1932.92" x2="176.92" y2="1968.26" xlink:href="#linear-gradient-artificial-intelligence-2-77"/><linearGradient id="linear-gradient-14-artificial-intelligence-2-77" x1="177.94" y1="1937.42" x2="209.77" y2="1972.76" xlink:href="#linear-gradient-artificial-intelligence-2-77"/><linearGradient id="linear-gradient-15-artificial-intelligence-2-77" x1="145.81" y1="2048.76" x2="179.39" y2="2072.09" xlink:href="#linear-gradient-artificial-intelligence-2-77"/><linearGradient id="linear-gradient-16-artificial-intelligence-2-77" x1="130.32" y1="2042.71" x2="245.55" y2="2076.64" xlink:href="#linear-gradient-artificial-intelligence-2-77"/><linearGradient id="linear-gradient-17-artificial-intelligence-2-77" x1="133.76" y1="168.3" x2="171.23" y2="195.01" gradientTransform="matrix(1,0,0,1,0,0)" xlink:href="#linear-gradient-artificial-intelligence-2-77"/><linearGradient id="linear-gradient-18-artificial-intelligence-2-77" x1="358.41" y1="1945.09" x2="369.16" y2="2275.29" gradientTransform="translate(-43.92 2318.36) scale(1 -1)" gradientUnits="userSpaceOnUse"><stop offset="0" stop-color="#fff"/><stop offset=".13" stop-color="#fff" stop-opacity=".69"/><stop offset=".15" stop-color="#fff" stop-opacity=".61"/><stop offset=".2" stop-color="#fff" stop-opacity=".47"/><stop offset=".25" stop-color="#fff" stop-opacity=".34"/><stop offset=".3" stop-color="#fff" stop-opacity=".23"/><stop offset=".36" stop-color="#fff" stop-opacity=".15"/><stop offset=".44" stop-color="#fff" stop-opacity=".08"/><stop offset=".52" stop-color="#fff" stop-opacity=".03"/><stop offset=".65" stop-color="#fff" stop-opacity="0"/><stop offset="1" stop-color="#fff" stop-opacity="0"/></linearGradient></defs><g id="background_artificial-intelligence-2-77"><path class="cls-2_artificial-intelligence-2-77 targetColor" d="M482.46,378.12c-7.21,14.61-23.46,22.23-39.01,27.12-24.84,7.78-50.79,11.36-76.81,10.6-32.09-.95-63.73-8.52-95.81-9.38-53.68-1.43-106.15,15.88-159.77,18.04-28.16,1.09-58.82-3.09-78.95-22.81-27-26.48-25.11-71.43-10.12-106.17,14.99-34.74,40.31-64.03,56.57-98.22,8.19-17.22,13.97-35.45,21.98-52.75,12.1-26.06,29.59-50.08,52.99-66.76,23.4-16.68,53.03-25.49,81.39-20.81,14.06,2.31,27.37,7.77,40.05,14.4,3.46,1.81,6.88,3.7,10.26,5.65,12.27,7.14,24.18,18.07,37.84,22.33,16.4,5.02,34.78,3.24,51.55,8.37,17.95,5.49,35.15,15.63,45.51,31.26,24.12,36.26,4.81,86.62,19.72,127.53,5.12,14.04,14.07,26.36,22.76,38.68,9.29,13.14,18.29,26.36,22.08,41.84,2.54,10.26,2.46,21.57-2.23,31.1Z" style="fill: rgb(82, 51, 255);"/></g><g id="character_artificial-intelligence-2-77"><path class="cls-1_artificial-intelligence-2-77" d="M150.5,359.36c-25.5,1.89-50.64,7.14-74.77,15.6-1.72.6-3.77,1.62-3.77,3.45s1.88,2.94,3.58,3.54c7.32,2.61,15.27,2.71,23.04,2.77,30.05.29,60.76.46,89.25-9.11,2.51-.85,5.59-2.57,5.26-5.25-.33-2.67-3.57-3.57-6.18-3.92l-43.9-5.99"/><path class="cls-24_artificial-intelligence-2-77 targetColor" d="M170.26,231.06c-.31.27-.7.44-1.12.46-2.51.23-6.62-3.21-8.03-4.33l-5.16-4.09c-3.3-2.61-6.4-6.88-3.14-10.8.1-.12.2-.24.31-.35.32-.33.68-.62,1.08-.84.85-.48,1.84-.68,2.81-.56,2.23.28,3.94,2.13,5.34,3.94,2.7,3.52,5.02,7.29,7.41,11.05.57.83,1,1.76,1.26,2.74.27,1-.02,2.06-.75,2.79Z" style="fill: rgb(82, 51, 255);"/><path class="cls-16_artificial-intelligence-2-77" d="M169.15,231.52c-2.51.23-6.62-3.21-8.03-4.33l-5.16-4.09c-3.3-2.61-6.4-6.88-3.14-10.8.76-.35,1.6-.49,2.44-.39,2.26.28,3.95,2.13,5.34,3.94,2.7,3.53,5.02,7.29,7.41,11.06.58.82,1.01,1.75,1.26,2.72.15.62.12,1.28-.1,1.88Z"/><path class="cls-23_artificial-intelligence-2-77" d="M156.38,201.03c.72.67,1.33,1.45,1.82,2.3l2.36,3.77c.85,1.11,1.38,2.44,1.52,3.84.02.27-.06.53-.23.74-.16.13-.35.22-.55.25-2.61.65-5.29.99-7.98,1-.93,0-1.86-.2-2.7-.6-1.35-.89-2.3-2.27-2.66-3.85-.73-2.12-2.82-6.53-.48-8.29,2.12-1.53,7.01-.8,8.9.84Z"/><path class="cls-24_artificial-intelligence-2-77 targetColor" d="M156.73,201.03c.72.67,1.33,1.45,1.82,2.3l2.36,3.77c.85,1.11,1.38,2.44,1.52,3.84.02.27-.06.53-.23.74-.16.13-.35.22-.55.25-2.61.65-5.29.99-7.98,1-.92.06-1.84-.1-2.69-.45-1.35-.89-2.3-2.27-2.66-3.85-.73-2.12-2.81-6.53-.48-8.29,2.12-1.68,6.99-.95,8.89.69Z" style="fill: rgb(82, 51, 255);"/><path class="cls-24_artificial-intelligence-2-77 targetColor" d="M128.19,177.38c-.06,2.22.55,4.41,1.75,6.28.31.39.58.81.82,1.26.35,1.05.4,2.17.15,3.25-.39,2.62-.83,5.41-2.6,7.39-.11.1-.19.23-.25.36-.11.35.2.7.48.95.89.82,1.81,1.61,2.74,2.4.95.87,2.02,1.6,3.16,2.18,1.65.74,3.5.87,5.24.36.25-.04.47-.19.6-.4.06-.18.06-.37,0-.55-.47-2.3-.83-4.62-1.07-6.96-.07-.5-.07-1,0-1.49.11-.43.26-.85.44-1.26.43-1.25.68-2.55.75-3.87.28-2.72.06-5.48-.64-8.12-.7-2.67-2.16-5.07-4.21-6.93-1.43-1.26-4.14-2.64-5.93-1.18-.52.58-.84,1.3-.92,2.07-.33,1.39-.51,2.81-.51,4.24Z" style="fill: rgb(82, 51, 255);"/><path class="cls-17_artificial-intelligence-2-77" d="M131.07,178.86c-.06,2.22.55,4.41,1.75,6.28.31.39.58.81.82,1.26.35,1.05.4,2.17.15,3.25-.39,2.62-.83,5.41-2.6,7.39-.11.1-.19.23-.25.36-.11.35.2.7.48.95,1.68,1.53,3.05,4.14,5.36,2.02,1.71-1.57,2.66-3.93,2.53-6.25-.05-.9-.26-1.78-.23-2.68s.34-1.85,1.08-2.36c.39-.26.86-.38,1.25-.64,2.37-1.59,1.83-5.56,1.24-7.8-.7-2.67-2.16-5.07-4.21-6.93-1.43-1.26-4.14-2.64-5.93-1.18-.52.58-.84,1.3-.92,2.07-.33,1.39-.51,2.81-.51,4.24Z"/><path class="cls-24_artificial-intelligence-2-77 targetColor" d="M126.57,168.84c.04-.97.34-1.91.85-2.74l1.54-2.95c.36-.75.8-1.45,1.33-2.08.96-.98,2.19-1.65,3.54-1.91,2.04-.39,4.12-.47,6.18-.24,1.11.04,2.2.2,3.28.46,3.1,1.08,5.53,3.52,6.59,6.62,1.01,3.07,1.43,6.3,1.26,9.53.02,1.61-.09,3.22-.33,4.82-.49,2.52-1.34,4.96-2.51,7.24-.51,1.17-1.18,2.26-2,3.24-1.59,2.08-4.57,2.47-6.65.88-.33-.25-.63-.55-.88-.88-1.04-1.2-1.86-2.57-2.42-4.06-.77-1.49-1.2-3.13-1.26-4.81.15-.95.21-1.92.19-2.89-.25-1.12-.78-2.15-1.53-3.01-.7-1.1-1.6-2.06-2.65-2.84-.96-.6-1.87-1.29-2.71-2.06-.67-.7-1.77-1.02-1.82-2.34Z" style="fill: rgb(82, 51, 255);"/><path class="cls-24_artificial-intelligence-2-77 targetColor" d="M155.51,238.19c.28,2.53.06,5.09-.67,7.53-.08.3-.25.57-.49.78-.36.2-.77.28-1.18.23-2.71-.07-5.42.07-8.11.43-1.59.21-3.18.5-4.77.74-.98.15-1.96.28-2.94.35-3.13.24-6.27-.03-9.32-.8-.33-.06-.64-.19-.92-.38-.35-.29-.61-.67-.78-1.09l-6.28-12.88c-1.18-2.31-2.22-4.69-3.1-7.13-.84-2.48-1.35-5.06-1.51-7.67-.09-1.54-.06-3.09.1-4.63-.17-1.38.81-2.63,2.19-2.8.13-.02.26-.02.4-.02,1.47-.15,2.93-.42,4.37-.79,1.45-.38,2.69-1.32,3.44-2.61.94-1.82.35-4.06-.49-5.93-.5-1.3-1.34-2.44-2.42-3.31-.67-.46-1.57-1.1-1.26-1.83.11-.21.27-.38.46-.5,2.61-1.83,5.26-.72,7.36,1.13,2.44,2.04,5.64,2.95,8.79,2.51,1.8-.23,1.05-1.97.95-3.35,1.47.41,2.91.9,4.34,1.43,1.36.44,2.64,1.11,3.77,1.98.96.92,1.78,1.99,2.44,3.15.72,1.13,1.42,2.26,2.05,3.43,5.27,9.94,3.28,21.24,3.57,32.04Z" style="fill: rgb(82, 51, 255);"/><path class="cls-15_artificial-intelligence-2-77" d="M140.3,247.86c-.98.15-1.96.28-2.94.35-3.13.24-6.27-.03-9.32-.8-.33-.06-.64-.19-.92-.38-.35-.29-.61-.67-.78-1.09l-6.28-12.88c-1.18-2.31-2.22-4.69-3.1-7.13-.84-2.47-1.35-5.03-1.51-7.63,1.07-.8,2.35-1.28,3.68-1.38,1.96-.2,3.89-.62,5.76-1.26.7-.25,6.28-2.3,6.28-3.09.38,2.69-2.23,4.75-4.48,6.28-.7.38-1.27.96-1.63,1.67-.22.75-.22,1.54,0,2.28,1.19,5.51,2.68,10.96,4.44,16.32.41,1.63,1.19,3.16,2.26,4.46,2.25,2.35,5.85,2.55,8.52,4.28Z"/><path class="cls-24_artificial-intelligence-2-77 targetColor" d="M110.79,241.88c-.45,1.21-1.14,2.32-2.02,3.26-.92.95-2.3,1.3-3.55.88-.35-.16-.66-.38-.92-.67-.87-1.26-1.27-2.79-1.14-4.32.03-7.82,1.04-15.61,2.99-23.19.51-2,.89-5.55,2.89-6.69.94-.26,1.93-.34,2.9-.25,2.51.09,5.76.62,5.84,1.43,1,10.19-2.8,20.2-6.98,29.54Z" style="fill: rgb(82, 51, 255);"/><path class="cls-21_artificial-intelligence-2-77" d="M107.15,241.49c-.44,1.21-1.13,2.32-2.02,3.26-.25.24-.53.44-.83.6-.87-1.26-1.27-2.79-1.14-4.32.03-7.82,1.04-15.61,2.99-23.19.51-2,.89-5.55,2.89-6.69.94-.26,1.93-.34,2.9-.25,1.26.26,2.15.6,2.2,1.04,1.02,10.19-2.77,20.2-6.98,29.54Z"/><path class="cls-24_artificial-intelligence-2-77 targetColor" d="M118.36,197.26c-2.38,1.24-4.13,3.43-4.81,6.03-.87,2.58-.58,5.41.79,7.76,2.06,2.98,5.98,4.04,9.27,2.51.55-.28,1.06-.63,1.53-1.03,2.97-2.65,3.8-6.95,2.05-10.52-1.86-3.62-4.19-6.89-8.83-4.75Z" style="fill: rgb(82, 51, 255);"/><path class="cls-22_artificial-intelligence-2-77" d="M118.14,197.26c-2.38,1.24-4.13,3.43-4.81,6.03-.87,2.58-.58,5.41.79,7.76,2.06,2.98,5.98,4.04,9.27,2.51.55-.28,1.06-.63,1.53-1.03,2.97-2.65,3.8-6.95,2.05-10.52-1.86-3.62-4.19-6.89-8.83-4.75Z"/><path class="cls-24_artificial-intelligence-2-77 targetColor" d="M118.19,216.09c1.26-.36,2.29-1.29,2.77-2.51,1-1.72,1.77-3.56,2.27-5.49.5-1.95.18-4.01-.89-5.71-1.22-1.44-2.79-2.54-4.56-3.2-1.31-.71-2.74-1.17-4.22-1.36-3.06,0-5.81,1.91-6.89,4.77-1,2.84-1,5.94,0,8.79,1,2.82,2.17,5.57,3.5,8.25.62,1.39,3.31-1.26,3.65-1.52,1.34-.89,2.81-1.57,4.36-2.02Z" style="fill: rgb(82, 51, 255);"/><path class="cls-24_artificial-intelligence-2-77 targetColor" d="M110.24,243.88c-1.09-.24-2.22-.29-3.33-.14-1.1.16-2.09.76-2.75,1.66-.36.54-.55,1.16-.55,1.81-.02.57.22,1.13.67,1.49.33.2.7.3,1.08.29,1.27.09,2.53-.31,3.52-1.12.99-.83,1.42-2.15,1.1-3.4" style="fill: rgb(82, 51, 255);"/><path class="cls-24_artificial-intelligence-2-77 targetColor" d="M195.21,217.68c-.03.15-.07.29-.11.44-1.11,2.9-2.96,5.46-5.39,7.41-3.61,3.32-7.65,6.15-12,8.42-3.19,1.67-7.61,3.1-10.27-.19l-.21-.28c-2.41-3.3.82-5.88,3.48-7.62,6.58-4.34,14.49-5.95,21.28-9.88.83-.48,1.91-.99,2.7-.45.58.55.79,1.39.53,2.15Z" style="fill: rgb(82, 51, 255);"/><path class="cls-20_artificial-intelligence-2-77" d="M195.21,217.68c-.03.15-.07.29-.11.44-1.11,2.9-2.96,5.46-5.39,7.41-3.61,3.32-7.65,6.15-12,8.42-3.19,1.67-7.61,3.1-10.27-.19-.15-2.32,2.27-4.18,4.33-5.55,6.57-4.34,14.48-5.95,21.34-9.87.61-.44,1.34-.68,2.1-.67Z"/><path class="cls-24_artificial-intelligence-2-77 targetColor" d="M194.56,211.49c.39-2.34,1.14-4.88,3.18-6.09.23-.15.56,0,.67.29.08.27.05.56-.08.82-.29.8-.8,1.49-1.14,2.28-.41.76-.43,1.67-.06,2.45,2.81-1.61,4.92-4.2,5.93-7.28.09-.41.27-.79.51-1.13.26-.34.71-.46,1.1-.29-.28,2.68-.97,5.3-2.05,7.77l4.27-5.66c-.05,2.55-.82,5.03-2.23,7.14,1.33-1.35,2.55-2.8,3.64-4.34.5,2.72-1.41,5.24-3.2,7.36.97-.99,2.09-1.81,3.33-2.45-2.23,4.65-7.37,7.44-12.18,8.71-2.13.56-4.17.35-3.65-2.23.51-2.59,1.57-4.8,1.97-7.34Z" style="fill: rgb(82, 51, 255);"/><path class="cls-24_artificial-intelligence-2-77 targetColor" d="M141.2,275.79c-1.52,9.71-4.05,19.23-7.53,28.41-.57,1.95-1.55,3.76-2.87,5.3-.35.36-.74.68-1.17.94-1.27.87-2.9,1.07-4.34.53-2.4-1.05-3.04-4.08-3.28-6.67-.93-9.81-.75-19.7.54-29.46.56-4.18,1.14-11.71,4.73-14.63,1.97-1.33,4.46-1.63,6.69-.82,1.91.5,3.65,1.51,5.02,2.93,3.06,3.53,2.84,8.81,2.21,13.47Z" style="fill: rgb(82, 51, 255);"/><path class="cls-18_artificial-intelligence-2-77" d="M141.2,275.79c-1.52,9.71-4.05,19.23-7.53,28.41-.57,1.95-1.55,3.76-2.87,5.3-.35.36-.74.68-1.17.94-1.68-1.33-2.2-3.9-2.41-6.14-.93-9.81-.75-19.7.55-29.46.55-4.18,1.13-11.71,4.73-14.63.44-.35.94-.63,1.47-.82,1.91.5,3.65,1.51,5.02,2.93,3.06,3.53,2.84,8.81,2.21,13.47Z"/><path class="cls-24_artificial-intelligence-2-77 targetColor" d="M126.64,306.74c-.9.1-1.76.41-2.51.9-.75.41-1.4,1-1.88,1.71-.9,1.61-.59,3.63.77,4.9,1.37,1.21,3.29,1.59,5.02.99.38-.12.74-.29,1.07-.53.86-.78,1.36-1.9,1.36-3.06.14-2.26-1.18-5.06-3.82-4.91Z" style="fill: rgb(82, 51, 255);"/><path class="cls-24_artificial-intelligence-2-77 targetColor" d="M129.51,319.38c-.41,9.77-3.5,19.21-6.54,28.49l-3.31,10.04c-.36,1.53-1.12,2.94-2.21,4.08-1.06.99-2.67,1.12-3.88.31-.12-.08-.23-.18-.31-.3,1.13-11.5,2.28-23.02,3.46-34.55.16-3.08.77-6.12,1.8-9.03,1.13-2.46,2.99-4.5,5.34-5.85,1.86-.92,3.77-.7,5.02,1.97.6,1.54.82,3.19.64,4.83Z" style="fill: rgb(82, 51, 255);"/><path class="cls-19_artificial-intelligence-2-77" d="M126.05,319.38c-.4,9.77-3.49,19.21-6.53,28.49-1.1,3.35-2.21,6.7-3.33,10.04-.35,1.53-1.11,2.94-2.2,4.08-.13.12-.27.22-.43.31-.12-.08-.23-.18-.31-.3,1.13-11.5,2.28-23.02,3.46-34.55.16-3.08.77-6.12,1.8-9.03,1.13-2.46,2.99-4.5,5.34-5.85.7.5,1.24,1.18,1.57,1.97.6,1.54.81,3.2.63,4.83Z"/><path class="cls-6_artificial-intelligence-2-77" d="M158.36,314.82c-.4,9.77-3.48,19.21-6.53,28.49-1.1,3.35-2.21,6.7-3.33,10.04-.35,1.53-1.11,2.94-2.2,4.08-.13.12-.27.22-.43.31-.12-.08-.23-.19-.31-.3l3.43-34.6c.16-3.08.77-6.12,1.81-9.03,1.12-2.46,2.99-4.51,5.34-5.85.69.5,1.23,1.18,1.57,1.97.61,1.55.83,3.23.65,4.88Z"/><path class="cls-23_artificial-intelligence-2-77" d="M118.21,361.82c-.57-.58-1.29-.98-2.08-1.15-.87-.03-1.72.25-2.41.78-.94.46-1.66,1.27-2.02,2.25-.1.6-.07,1.22.08,1.81l.77,4.37c.03.45.21.87.51,1.19.26.18.55.29.87.33l4.06.78c1.87.44,3.78.65,5.7.62.65,0,1.29-.18,1.85-.53.5-.44.84-1.03.97-1.68.2-.55.2-1.16,0-1.71-.56-1.26-1.53-.34-2.32-.75-.59-.31-1.02-1.64-1.43-2.2-1.35-1.53-2.87-2.9-4.52-4.09Z"/><path class="cls-23_artificial-intelligence-2-77" d="M150.62,357.24c-.57-.59-1.3-.99-2.1-1.17-.86-.02-1.71.25-2.4.78-.94.46-1.66,1.27-2.02,2.25-.12.6-.12,1.21,0,1.81l.77,4.38c.03.44.21.86.51,1.18.26.18.56.29.87.33l4.06.78c1.87.44,3.78.65,5.7.62.65,0,1.3-.17,1.85-.53.51-.43.85-1.03.97-1.68.18-.56.16-1.16-.06-1.71-.56-1.26-1.52-.34-2.32-.75-.59-.31-1.02-1.64-1.43-2.2-1.3-1.52-2.77-2.89-4.38-4.08Z"/><path class="cls-24_artificial-intelligence-2-77 targetColor" d="M162.91,301.65c-.09,2.03-.59,4.01-1.48,5.84-.96,1.86-2.94,2.95-5.02,2.77-.26-.05-.51-.12-.75-.21-2.08-.79-3.25-3.26-4.03-5.45-3.33-9.28-5.58-18.91-6.7-28.7-.49-4.18-1.78-11.63.99-15.34.59-.77,1.37-1.36,2.27-1.72,3.15-1.18,6.67-.84,9.54.92,3.9,2.64,5.02,7.81,5.52,12.49.9,9.79.79,19.64-.34,29.4Z" style="fill: rgb(82, 51, 255);"/><path class="cls-3_artificial-intelligence-2-77" d="M158.8,302.34c-.08,2.03-.59,4.02-1.48,5.85-.42.72-.99,1.36-1.66,1.86-2.08-.79-3.25-3.26-4.03-5.45-3.33-9.28-5.58-18.91-6.7-28.7-.49-4.18-1.78-11.63.99-15.34.59-.77,1.37-1.36,2.27-1.72,1.92.04,3.8.59,5.44,1.61,3.9,2.65,5.02,7.82,5.54,12.55.89,9.77.76,19.6-.36,29.34Z"/><path class="cls-24_artificial-intelligence-2-77 targetColor" d="M158.96,302.14c-.9.1-1.76.41-2.51.9-.75.42-1.39,1-1.88,1.71-.89,1.62-.58,3.63.77,4.9,1.37,1.21,3.29,1.59,5.02.99.39-.11.75-.29,1.08-.53.86-.78,1.36-1.9,1.36-3.06.13-2.26-1.19-5.06-3.83-4.91Z" style="fill: rgb(82, 51, 255);"/><path class="cls-24_artificial-intelligence-2-77 targetColor" d="M150.82,313.84c-1.04,2.9-1.65,5.94-1.81,9.01l-3.41,34.61c1.17,1.13,3.02,1.13,4.19,0,1.09-1.13,1.85-2.54,2.21-4.07l3.31-10.04c3.05-9.29,6.14-18.73,6.53-28.5.18-1.64-.05-3.29-.65-4.82-2.85-6.06-8.91.31-10.37,3.8Z" style="fill: rgb(82, 51, 255);"/><path class="cls-4_artificial-intelligence-2-77" d="M158.36,314.82c-.4,9.77-3.48,19.21-6.53,28.49-1.1,3.35-2.21,6.7-3.33,10.04-.35,1.53-1.11,2.94-2.2,4.08-.13.12-.27.22-.43.31-.12-.08-.23-.19-.31-.3l3.43-34.6c.16-3.08.77-6.12,1.81-9.03,1.12-2.46,2.99-4.51,5.34-5.85.69.5,1.23,1.18,1.57,1.97.61,1.55.83,3.23.65,4.88Z"/><path class="cls-5_artificial-intelligence-2-77" d="M119.84,369.54c-.15-.02-.3.02-.41.11-.14.13-.13.35-.23.51s-.51.24-.82.2c-.86-.07-1.71-.28-2.51-.62-.79-.34-1.4-1.01-1.66-1.83-.36-1.39.6-3.09-.29-4.22-.61-.68-1.65-.73-2.32-.12-.14.12-.25.27-.34.43-.19.52-.24,1.09-.14,1.63.13,1.31.3,2.63.49,3.95-.02.57.43,1.04,1,1.06.05,0,.1,0,.14,0l7.42,1.37c.58.14,1.18.17,1.77.1.92-.16,1.98-1.34,1.04-2.18-.59-.55-2.39-.4-3.15-.39Z"/><path class="cls-11_artificial-intelligence-2-77" d="M152.69,365.04c-.15-.02-.3.02-.41.11-.14.14-.13.36-.23.51s-.53.24-.82.2c-.87-.07-1.71-.27-2.51-.62-.79-.34-1.4-1.01-1.66-1.83-.36-1.39.6-3.09-.29-4.22-.62-.67-1.67-.72-2.34-.1-.13.12-.23.25-.32.4-.19.52-.24,1.09-.14,1.63.14,1.32.29,2.64.48,3.95.02.21.08.42.19.6.25.27.6.44.97.46l7.42,1.36c.57.14,1.17.18,1.76.11.93-.16,2-1.36,1.04-2.18-.58-.56-2.37-.41-3.14-.4Z"/><path class="cls-23_artificial-intelligence-2-77" d="M129.74,266.31c.72.64,1.53,1.49,1.26,2.42s-1.39,1.18-2.34,1.26c-3.1-.16-6.1-1.14-8.7-2.82-4.27-2.41-8.2-5.37-11.71-8.79-2.65-2.6-5.44-6.5-2.8-10.13,2.41-3.3,5.86-1.02,8.34.97,6.15,4.75,10.12,11.78,15.96,17.1Z"/><path class="cls-24_artificial-intelligence-2-77 targetColor" d="M130.98,268.66c-.26.88-1.33,1.18-2.25,1.26h0c-3.1-.17-6.11-1.14-8.71-2.84-4.27-2.41-8.2-5.37-11.71-8.79-2.64-2.57-5.4-6.44-2.82-10.04v-.06c2.41-3.3,5.85-1.02,8.34.97,6.15,4.91,10.12,11.95,15.93,17.2.7.54,1.52,1.39,1.23,2.31Z" style="fill: rgb(82, 51, 255);"/><path class="cls-9_artificial-intelligence-2-77" d="M128.73,269.86h0c-3.1-.17-6.11-1.14-8.71-2.84-4.27-2.41-8.2-5.37-11.71-8.79-2.64-2.57-5.4-6.44-2.82-10.04,2.02-.44,4.29,1.14,6.08,2.51,6.15,4.92,10.04,11.95,15.94,17.21.63.48,1.07,1.17,1.23,1.95Z"/><path class="cls-24_artificial-intelligence-2-77 targetColor" d="M126.08,256.57c-.22,1.41.45,2.82,1.68,3.54,4.22,3.26,9.8,5.02,12.81,9.38.53,1,1.26,1.88,2.13,2.6,1.03.52,2.19.74,3.34.63,1.23.15,2.46-.2,3.43-.98.36-.43.62-.92.78-1.46,2.34-6.18,3.64-12.71,3.85-19.32,0-1.43-.13-3.14-1.38-3.77-.7-.29-1.47-.37-2.22-.24l-16.89,1.38c-1.98.16-4.78-.24-6.11,1.26-1.33,1.49-1.42,5.29-1.42,6.98Z" style="fill: rgb(82, 51, 255);"/><path class="cls-8_artificial-intelligence-2-77" d="M137.08,249.99c-.68.9-1.39,1.78-2.13,2.64,3.59.9,5.98,4.29,7.53,7.66,1.58,3.21,2.44,6.74,2.51,10.32.01.22-.02.45-.11.65-.27.42-.79.59-1.26.43-.45-.18-.85-.46-1.18-.82-3.8-3.56-7.91-6.77-12.28-9.6-.71-.41-1.37-.91-1.96-1.48-.65-.71-1.13-1.58-1.38-2.51-.6-2.06-.33-5.79,1.78-7.03,2.11-1.24,6.24-.25,8.47-.25Z"/><path class="cls-24_artificial-intelligence-2-77 targetColor" d="M134.73,266.08c2.34-.34,5.02-.41,6.77,1.14.18.21.16.53-.05.71,0,0-.02.01-.02.02-.23.16-.51.22-.79.19-.85,0-1.68-.3-2.51-.39-.85-.16-1.73.1-2.36.69,2.4,2.19,5.54,3.4,8.79,3.4.42-.04.85,0,1.26.14.4.14.66.53.63.95-2.64.57-5.35.72-8.03.46l6.72,2.3c-2.45.76-5.07.79-7.53.09,1.7.84,3.46,1.55,5.26,2.12-2.44,1.26-5.42.28-7.98-.78,1.24.62,2.37,1.43,3.34,2.41-5.1-.7-9.34-4.72-12.03-8.9-1.26-1.86-1.62-3.85.99-4.17s5.01,0,7.57-.39Z" style="fill: rgb(82, 51, 255);"/><path class="cls-7_artificial-intelligence-2-77" d="M142.68,175.2c-.69-.15-1.41.05-1.93.53-.23.44-.3.96-.18,1.44,0,.56.11,1.12.2,1.67.02.11.06.22.11.31.11.11.27.18.43.19,3.05.6,6.17.8,9.28.59.23,0,.47-.05.67-.18.21-.23.33-.53.33-.84.08-1.12.08-2.25,0-3.38,0-.79-.7-.46-1.26-.4-.84.1-1.71.11-2.51.14-1.72.01-3.48,0-5.13-.08Z"/></g><g id="technology_artificial-intelligence-2-77"><ellipse class="cls-13_artificial-intelligence-2-77" cx="335.09" cy="376.86" rx="107.63" ry="31.1"/><ellipse class="cls-24_artificial-intelligence-2-77 targetColor" cx="335.09" cy="361.02" rx="96.76" ry="22.82" style="fill: rgb(82, 51, 255);"/><path class="cls-10_artificial-intelligence-2-77" d="M462.61,305.12l-26.77,55.24c-2.6,5.39-7.19,9.57-12.81,11.64-26.29,9.63-106.25,33.72-175.84.99-5.57-2.64-9.84-7.41-11.86-13.23l-60.69-173.16c13.26-8.51,27.62-15.6,37.25-27.93,11.37-14.56,14.14-33.97,22.6-50.43s23.33-29.55,40.5-36.82c3.46,1.81,6.88,3.7,10.26,5.65,12.24,7.09,24.15,18.02,37.81,22.28,16.4,5.02,34.78,3.24,51.55,8.37,17.95,5.49,35.15,15.63,45.51,31.26,24.12,36.26,4.81,86.62,19.72,127.53,5.12,13.97,14.07,26.28,22.76,38.62Z"/><path class="cls-14_artificial-intelligence-2-77 targetColor" d="M352.9,143.28c-.08,6.49-5.41,11.68-11.9,11.6-4.85-.06-9.17-3.1-10.86-7.65-.45-1.25-.68-2.57-.68-3.9,0-6.48,5.27-11.74,11.75-11.74,2.76-.01,5.43.96,7.53,2.74,2.63,2.23,4.15,5.5,4.16,8.95Z" style="fill: rgb(82, 51, 255);"/><path class="cls-12_artificial-intelligence-2-77" d="M349.36,138.26c-.01,6.46-5.23,11.69-11.69,11.73-2.76,0-5.43-.97-7.53-2.75-.45-1.25-.68-2.57-.68-3.9,0-6.48,5.27-11.74,11.75-11.74,2.76-.01,5.43.96,7.53,2.74.43,1.26.64,2.59.62,3.93Z"/><path class="cls-14_artificial-intelligence-2-77 targetColor" d="M299.32,244.33c2.35-1.62,5.57-1.02,7.19,1.33,1.24,1.8,1.21,4.18-.06,5.95-.34.49-.77.91-1.26,1.26-2.3,1.7-5.53,1.22-7.24-1.08-1.7-2.3-1.22-5.53,1.08-7.24.09-.07.18-.13.27-.19v-.04Z" style="fill: rgb(82, 51, 255);"/><path class="cls-12_artificial-intelligence-2-77" d="M298.37,246.89c2.34-1.63,5.55-1.05,7.18,1.29.7,1,1.02,2.22.9,3.43-.34.49-.77.91-1.26,1.26-2.35,1.63-5.57,1.04-7.2-1.3-.69-1-1.01-2.21-.9-3.42.34-.49.77-.92,1.27-1.26Z"/><path class="cls-14_artificial-intelligence-2-77 targetColor" d="M295.65,206.3c2.35-1.62,5.57-1.02,7.19,1.33,1.24,1.8,1.21,4.18-.06,5.95-.34.49-.76.92-1.26,1.26-2.33,1.64-5.55,1.08-7.19-1.25,0,0,0,0,0,0-.69-1-1.01-2.21-.9-3.41.11-1.56.93-2.98,2.22-3.87Z" style="fill: rgb(82, 51, 255);"/><path class="cls-12_artificial-intelligence-2-77" d="M294.7,208.86c2.34-1.63,5.55-1.05,7.18,1.29.7,1,1.02,2.22.9,3.43-.34.49-.76.92-1.26,1.26-2.33,1.64-5.55,1.08-7.19-1.25,0,0,0,0,0,0-.69-1-1.01-2.21-.9-3.41.34-.51.77-.95,1.27-1.31Z"/><g class="cls-25_artificial-intelligence-2-77"><polygon class="cls-24_artificial-intelligence-2-77 targetColor" points="305.56 247.18 304.95 245.48 338.98 233.17 327.12 214.07 359.28 205.37 359.74 207.12 329.93 215.19 341.7 234.11 305.56 247.18" style="fill: rgb(82, 51, 255);"/></g><polygon class="cls-24_artificial-intelligence-2-77 targetColor" points="327.78 215.14 319.87 203.74 301.96 210.22 301.34 208.51 320.56 201.57 329.26 214.12 327.78 215.14" style="fill: rgb(82, 51, 255);"/><path class="cls-14_artificial-intelligence-2-77 targetColor" d="M360.51,195.79c4.7-3.25,11.14-2.08,14.39,2.62,2.5,3.61,2.45,8.39-.12,11.95-.69.95-1.54,1.78-2.51,2.44-4.75,3.17-11.18,1.89-14.35-2.86-3.09-4.63-1.96-10.88,2.56-14.14h.03Z" style="fill: rgb(82, 51, 255);"/><path class="cls-12_artificial-intelligence-2-77" d="M358.6,200.92c4.69-3.26,11.12-2.1,14.38,2.59,1.39,2,2.03,4.43,1.8,6.85-.69.95-1.54,1.78-2.51,2.44-4.7,3.25-11.14,2.08-14.39-2.61-1.38-1.99-2.02-4.4-1.8-6.82.7-.95,1.55-1.78,2.52-2.45Z"/><g class="cls-25_artificial-intelligence-2-77"><polygon class="cls-24_artificial-intelligence-2-77 targetColor" points="345.83 210.19 324.2 173.06 348.32 162.73 342.29 151.74 343.88 150.87 350.86 163.6 326.79 173.91 347.39 209.28 345.83 210.19" style="fill: rgb(82, 51, 255);"/></g><path class="cls-14_artificial-intelligence-2-77 targetColor" d="M344.11,273.29c5.64-2.12,11.93.72,14.06,6.36,2.12,5.64-.72,11.93-6.36,14.06-5.64,2.12-11.93-.72-14.06-6.36-.91-2.41-.93-5.05-.08-7.48,1.07-3.04,3.43-5.44,6.44-6.58Z" style="fill: rgb(82, 51, 255);"/><path class="cls-12_artificial-intelligence-2-77" d="M340.83,278.01c5.64-2.09,11.91.78,14.01,6.42,0,0,0,0,0,0,.88,2.4.88,5.04,0,7.44-4.68,3.79-11.54,3.07-15.33-1.61-2.36-2.92-3.06-6.85-1.84-10.4.94-.79,2-1.42,3.15-1.86Z"/><path class="cls-14_artificial-intelligence-2-77 targetColor" d="M367.19,293.84c2.83-1.04,5.97.42,7.01,3.25.79,2.15.15,4.57-1.61,6.05-.47.4-1.01.71-1.59.92-2.79,1.13-5.97-.21-7.1-2.99-1.13-2.79.21-5.97,2.99-7.1.11-.05.22-.09.34-.12h-.04Z" style="fill: rgb(82, 51, 255);"/><path class="cls-12_artificial-intelligence-2-77" d="M365.56,296.2c2.82-1.05,5.96.39,7.01,3.21.45,1.2.46,2.53.02,3.74-.47.4-1.01.71-1.59.92-2.83,1.04-5.97-.4-7.01-3.23-.44-1.19-.45-2.5-.03-3.7.48-.4,1.02-.71,1.61-.93Z"/><path class="cls-14_artificial-intelligence-2-77 targetColor" d="M336.54,308.37c2.9-1.08,6.14.39,7.22,3.3,1.08,2.9-.39,6.14-3.3,7.22-2.9,1.08-6.14-.39-7.22-3.3,0,0,0,0,0-.01-.44-1.22-.44-2.55,0-3.77.53-1.58,1.74-2.84,3.3-3.44Z" style="fill: rgb(82, 51, 255);"/><path class="cls-12_artificial-intelligence-2-77" d="M334.85,310.8c2.07-1.78,5.19-1.56,6.98.51,1.78,2.07,1.56,5.19-.51,6.98-2.07,1.78-5.19,1.56-6.98-.51-.54-.63-.92-1.39-1.09-2.21-.44-1.22-.44-2.55,0-3.77.47-.43,1.02-.77,1.61-1Z"/><g class="cls-25_artificial-intelligence-2-77"><polygon class="cls-24_artificial-intelligence-2-77 targetColor" points="354.61 316.26 345.97 307.19 342.06 311.71 341.42 311.14 345.95 305.91 354.56 314.96 366.96 299.87 367.63 300.41 354.61 316.26" style="fill: rgb(82, 51, 255);"/></g></g></svg>